<!-- Generated by IcoMoon.io -->
<svg version="1.1" xmlns="http://www.w3.org/2000/svg" width="1024" height="1024" viewBox="0 0 1024 1024">
<title></title>
<path fill="#000" d="M492.996 417.171v75.827h-189.602v38.009h189.602v75.857h-246.504c-10.496 0-19.004-8.509-19.004-19.004v0-151.724c0-10.496 8.509-19.004 19.004-19.004v0zM777.458 417.171h-246.454v75.827h189.642v38.009h-189.642v132.699h75.817v-56.893h170.677c10.496 0 19.004-8.509 19.004-19.004v0-151.673c-0.023-10.478-8.522-18.964-19.004-18.964 0 0 0 0 0 0v0zM590.157 865.88l402.629-292.614c19.010-13.932 31.214-36.177 31.214-61.274s-12.205-47.341-31.003-61.125l-0.212-0.148-402.638-292.594c-21.614-15.92-48.767-25.479-78.152-25.479s-56.538 9.559-78.519 25.736l0.367-0.258-402.629 292.594c-19.010 13.932-31.214 36.177-31.214 61.274s12.205 47.341 31.003 61.125l0.212 0.148 402.629 292.614c21.616 15.918 48.771 25.475 78.157 25.475s56.541-9.557 78.524-25.733l-0.367 0.258zM573.423 181.15l402.678 292.594c11.867 8.698 19.486 22.586 19.486 38.253s-7.619 29.555-19.354 38.161l-0.133 0.093-402.669 292.604c-16.991 12.513-38.335 20.026-61.434 20.026s-44.443-7.513-61.722-20.229l0.288 0.202-402.669-292.604c-11.867-8.698-19.486-22.586-19.486-38.253s7.619-29.555 19.354-38.161l0.133-0.093 402.669-292.594c16.989-12.512 38.332-20.025 61.429-20.025s44.439 7.512 61.717 20.227l-0.288-0.202z"></path>
</svg>
